<?xml version="1.0" encoding="UTF-8" standalone="no"?>
<svg
   version="1.0"
   width="776.47223pt"
   height="1147.6588pt"
   viewBox="0 0 776.47223 1147.6588"
   preserveAspectRatio="xMidYMid"
   id="svg1205"
   sodipodi:docname="84564073-icono-de-esbozo-de-boca-de-riego-de-incendios-para-web-móvil-e-infografía-mano-dibuja-el-ic.svg"
   inkscape:export-filename="blue.svg"
   inkscape:export-xdpi="96"
   inkscape:export-ydpi="96"
   xmlns:inkscape="http://www.inkscape.org/namespaces/inkscape"
   xmlns:sodipodi="http://sodipodi.sourceforge.net/DTD/sodipodi-0.dtd"
   xmlns="http://www.w3.org/2000/svg"
   xmlns:svg="http://www.w3.org/2000/svg">
  <defs
     id="defs1209" />
  <sodipodi:namedview
     id="namedview1207"
     pagecolor="#ffffff"
     bordercolor="#000000"
     borderopacity="0.25"
     inkscape:showpageshadow="2"
     inkscape:pageopacity="0.0"
     inkscape:pagecheckerboard="0"
     inkscape:deskcolor="#d1d1d1"
     inkscape:document-units="pt"
     showgrid="false" />
  <g
     transform="matrix(0.16546799,0,0,-0.16514917,-686.96019,1646.3616)"
     fill="#000000"
     stroke="none"
     id="g1203"
     style="fill:#000000">
    <path
       d="m 6412,9960 c -19,-4 -50,-23 -70,-41 l -37,-34 30,34 30,34 -30,-7 c -130,-32 -235,-133 -235,-227 v -32 l 28,24 c 15,13 9,5 -13,-19 -37,-40 -61,-59 -35,-27 11,13 8,14 -21,9 -121,-22 -355,-124 -489,-213 -105,-69 -261,-223 -321,-316 -107,-165 -177,-386 -195,-617 -5,-65 -10,-88 -21,-88 -17,0 -112,-47 -133,-66 -8,-7 -30,-26 -48,-41 -35,-29 -67,-80 -124,-193 -31,-61 -33,-71 -32,-165 1,-85 5,-111 29,-169 69,-173 199,-282 413,-349 91,-28 102,-34 98,-52 -3,-11 -6,-83 -6,-161 v -141 l -102,-12 c -193,-22 -376,-60 -437,-91 -102,-52 -175,-149 -200,-266 l -13,-60 -52,-11 c -80,-17 -146,-52 -202,-108 -43,-43 -54,-61 -65,-109 -11,-50 -10,-64 5,-112 34,-109 148,-213 257,-236 59,-12 59,-12 59,-48 0,-56 27,-155 59,-218 70,-140 203,-195 623,-263 l 76,-13 6,-160 c 3,-89 9,-377 12,-642 l 6,-481 -84,-6 c -199,-14 -396,-132 -510,-306 -101,-155 -111,-320 -28,-466 122,-213 525,-399 960,-445 127,-13 451,-30 574,-30 h 99 l -19,23 -19,22 26,-22 c 25,-22 31,-23 264,-23 213,0 241,2 259,17 20,17 20,17 6,-1 -15,-19 -11,-19 160,-12 284,11 578,49 902,116 202,41 349,112 459,220 183,180 184,411 1,637 -78,96 -244,203 -364,233 -88,23 -124,29 -160,30 h -38 v 528 c 0,291 3,583 6,649 l 7,120 186,33 c 216,38 319,67 383,110 57,38 110,96 138,149 21,43 50,163 50,210 0,26 4,29 42,35 68,11 125,42 181,98 127,127 135,277 21,378 -47,41 -144,87 -200,96 l -42,6 -18,72 c -33,139 -102,223 -223,270 -55,21 -269,62 -413,78 l -108,12 -2,108 c -1,59 -2,133 -3,164 v 56 l 90,39 c 114,49 183,96 270,184 119,120 174,262 161,417 -13,158 -70,240 -219,313 l -91,45 -3,47 c -12,142 -91,403 -169,553 -108,206 -320,409 -550,523 -74,37 -265,107 -292,107 -11,0 1,-18 33,-52 28,-29 13,-17 -33,27 -45,44 -82,81 -82,84 0,2 9,-4 20,-14 20,-18 20,-18 13,16 -23,120 -125,223 -231,233 -24,2 -45,6 -49,10 -9,8 -171,6 -211,-4 z m 289,-67 c 13,-16 12,-17 -3,-4 -10,7 -18,15 -18,17 0,8 8,3 21,-13 z m -401,-16 c 0,-1 -33,-34 -72,-72 l -73,-70 70,73 c 64,67 75,77 75,69 z m 495,-77 c 38,-38 67,-70 64,-70 -2,0 -36,32 -74,70 -38,39 -67,70 -64,70 2,0 36,-31 74,-70 z m -111,15 c 41,-21 70,-53 81,-92 6,-22 6,-22 -77,-15 -106,9 -309,9 -416,0 l -82,-7 14,27 c 22,43 61,73 118,93 77,27 305,23 362,-6 z m -634,-188 c 0,-2 -15,-16 -32,-33 l -33,-29 29,33 c 28,30 36,37 36,29 z m 370,-50 c 0,-7 -13,-26 -28,-43 -43,-47 -72,-86 -72,-95 0,-36 73,29 124,110 22,34 30,39 61,38 19,-1 35,-4 35,-9 0,-4 -17,-31 -39,-59 -55,-73 -84,-181 -31,-118 11,13 37,54 59,90 54,89 58,91 130,83 l 61,-7 -34,-37 c -52,-57 -87,-124 -89,-169 -1,-22 3,-41 8,-42 6,-1 26,29 45,68 19,38 52,93 74,122 38,52 39,52 80,46 85,-14 118,-26 112,-41 -3,-8 -40,-68 -83,-132 -95,-146 -138,-252 -102,-252 17,0 35,26 79,115 21,44 64,123 95,175 62,106 59,104 148,69 27,-11 52,-17 57,-14 4,3 14,-2 21,-11 7,-8 39,-28 71,-44 32,-16 84,-48 116,-70 59,-42 192,-166 192,-178 -1,-4 -23,-32 -51,-62 -67,-73 -358,-513 -359,-542 0,-5 6,-8 13,-8 27,0 105,92 166,197 57,96 140,225 187,291 9,12 32,39 49,58 l 33,36 41,-63 c 23,-35 41,-66 41,-70 0,-4 -24,-41 -54,-81 -276,-370 -336,-461 -336,-508 0,-46 33,-13 124,123 98,145 275,400 288,412 8,8 68,-117 68,-141 0,-18 -96,-162 -195,-292 -118,-156 -128,-172 -129,-211 -1,-52 22,-47 61,14 18,28 49,73 70,100 21,28 75,109 122,180 46,72 85,132 88,135 8,9 21,-23 37,-97 19,-88 31,-63 -129,-268 -121,-155 -129,-168 -121,-209 l 6,-32 -180,-38 c -209,-44 -318,-55 -565,-55 -435,-1 -814,30 -1185,95 -227,40 -399,103 -436,159 -28,43 -36,102 -23,184 6,42 13,90 15,106 13,99 94,328 150,421 120,200 331,376 554,463 19,8 53,30 75,50 30,27 33,29 15,7 -23,-26 -23,-28 -5,-23 11,4 49,15 85,26 78,24 163,39 285,50 50,5 93,9 98,10 4,0 7,-5 7,-12 z m 656,-59 29,-33 -32,29 c -31,28 -38,36 -30,36 2,0 16,-15 33,-32 z m 734,-1037 c 0,-5 7,-62 16,-126 9,-64 12,-120 8,-124 -30,-26 -267,-101 -280,-89 -5,6 41,74 156,231 79,108 100,131 100,108 z M 5096,8211 c 42,-48 101,-86 187,-120 139,-55 270,-81 707,-136 69,-8 139,-17 155,-20 80,-12 766,-24 887,-16 240,17 696,119 829,186 47,24 128,110 134,142 9,55 135,-64 135,-127 0,-59 -68,-127 -166,-167 -212,-86 -378,-129 -561,-142 -239,-19 -744,-25 -968,-12 -933,53 -1272,96 -1445,187 -60,31 -85,53 -104,91 -42,84 1,179 113,254 l 46,30 11,-59 c 7,-40 20,-69 40,-91 z m -222,121 c 3,-5 -1,-9 -9,-9 -8,0 -12,4 -9,9 3,4 7,8 9,8 2,0 6,-4 9,-8 z m 93,-474 c 85,-44 191,-72 385,-103 83,-13 153,-26 155,-29 5,-5 -21,-60 -68,-143 -29,-51 -33,-52 -186,-22 -146,27 -271,87 -338,161 -53,58 -101,153 -111,220 l -7,43 51,-46 c 28,-25 81,-62 119,-81 z m 3122,-20 c -31,-57 -204,-208 -240,-208 -7,0 11,61 36,121 3,9 46,33 96,54 49,20 91,41 95,46 12,20 24,8 13,-13 z m -295,-175 c -19,-42 -36,-78 -37,-79 -7,-6 -112,-32 -115,-29 -3,2 8,34 23,70 16,36 25,69 21,73 -6,6 92,36 131,41 8,0 -2,-30 -23,-76 z m -2116,48 c -2,-4 -23,-46 -48,-94 l -45,-87 h -43 c -28,0 -41,-4 -37,-11 14,-21 -30,13 -50,39 -16,23 -16,25 -1,13 22,-18 24,-14 63,82 l 28,68 68,-2 c 37,-1 66,-5 65,-8 z m 200,-16 c 2,-2 -8,-26 -22,-54 -15,-28 -30,-67 -34,-86 -4,-20 -10,-36 -15,-36 -4,1 -43,1 -88,1 -94,0 -92,-7 -33,119 l 34,73 78,-7 c 42,-4 78,-8 80,-10 z m 174,-11 c 3,-3 -5,-32 -18,-64 -13,-33 -24,-73 -24,-90 0,-34 -5,-35 -96,-24 l -51,6 8,42 c 5,22 19,62 31,89 l 21,47 h 62 c 34,0 64,-3 67,-6 z m 1562,-64 c -19,-39 -34,-75 -34,-80 0,-5 -10,-12 -22,-15 -13,-4 -43,-26 -68,-49 l -45,-41 40,44 c 29,32 35,42 20,38 -57,-16 -75,-18 -75,-9 0,6 20,40 44,76 24,35 46,71 49,80 5,13 26,18 103,24 20,2 20,-1 -12,-68 z m -1337,46 c 1,0 -14,-27 -33,-58 -18,-32 -37,-72 -41,-89 -5,-16 -12,-30 -16,-30 -4,1 -35,1 -68,1 h -61 l 6,48 c 4,26 14,69 23,95 l 15,49 87,-7 c 47,-4 87,-8 88,-9 z m 1193,-2 c 0,-3 -11,-20 -24,-37 -13,-18 -35,-55 -49,-83 -23,-45 -30,-52 -64,-57 -70,-12 -95,-9 -89,11 2,9 8,28 12,42 3,14 16,38 27,53 14,21 17,31 8,40 -18,18 -57,-29 -84,-98 l -23,-60 -78,-3 c -77,-3 -78,-3 -71,20 4,13 14,37 23,53 8,17 21,48 27,70 l 12,40 129,3 c 119,2 201,6 232,10 6,1 12,-1 12,-4 z m -1000,-9 c 0,-3 -14,-27 -31,-55 -17,-28 -33,-68 -36,-90 l -5,-39 -72,6 c -39,3 -73,7 -75,9 -8,7 21,89 46,132 l 25,42 h 74 c 41,0 74,-2 74,-5 z m 180,-40 c -39,-64 -52,-96 -47,-121 4,-24 4,-24 -74,-24 h -79 v 28 c 0,15 13,55 30,90 l 29,62 h 81 82 z m 185,18 c -4,-10 -19,-51 -34,-92 -14,-40 -29,-73 -33,-72 -5,1 -32,1 -62,1 h -53 l 3,30 c 2,16 17,57 34,90 l 30,60 h 61 c 54,0 60,-2 54,-17 z m 181,-72 -45,-88 -66,-7 c -36,-4 -70,-4 -74,-1 -5,2 5,45 22,95 l 30,90 h 89 88 z M 5580,7445 c 13,-14 21,-25 18,-25 -2,0 -15,11 -28,25 -13,14 -21,25 -18,25 2,0 15,-11 28,-25 z m 37,-55 c 103,-6 309,-20 456,-31 535,-39 878,-45 1186,-22 74,5 88,9 120,37 34,29 35,29 11,2 l -25,-27 55,7 c 30,4 91,15 135,25 44,9 81,16 82,16 0,-1 -3,-60 -8,-132 -7,-111 -29,-2408 -29,-3022 v -202 l -98,-30 c -359,-111 -664,-146 -1226,-138 -318,4 -388,7 -493,26 -183,31 -306,82 -372,154 -29,30 -30,33 -14,56 15,23 16,71 10,501 -21,1456 -45,2664 -56,2745 l -8,57 43,-6 c 24,-3 128,-10 231,-16 z m -387,-461 v -61 l -62,-57 c -90,-82 -369,-351 -470,-454 l -88,-88 v 73 c 0,69 2,74 29,93 16,11 102,99 193,195 195,208 356,360 380,360 15,0 18,-9 18,-61 z m 2630,47 c 37,-9 54,-18 52,-27 -4,-14 -39,-59 -111,-139 l -40,-45 -1,113 c 0,128 -5,123 100,98 z m -2730,-10 c 0,-2 -26,-23 -57,-46 -32,-24 -149,-135 -260,-248 l -203,-206 v 67 67 l 92,92 c 105,106 168,175 190,207 12,17 41,28 114,46 102,24 124,28 124,21 z m 2888,-31 c 2,-2 -20,-32 -50,-68 -29,-35 -86,-107 -127,-160 -41,-53 -76,-97 -78,-97 -1,0 -3,20 -3,43 0,47 -3,42 118,199 34,45 62,85 62,91 0,8 69,1 78,-8 z m 122,-20 c 57,-11 70,-16 70,-28 -1,-7 -37,-52 -80,-102 -90,-102 -228,-276 -310,-392 l -55,-78 -3,94 c -2,69 1,98 11,110 8,9 46,66 85,128 64,101 154,224 197,267 10,9 25,15 34,12 9,-2 32,-7 51,-11 z m -3290,-14 c 0,-15 -225,-221 -229,-210 -8,23 23,101 55,138 43,50 174,104 174,72 z m 3445,-45 30,-25 -51,-53 c -138,-145 -474,-591 -474,-630 0,-40 92,50 181,177 172,245 341,460 362,460 11,0 35,-59 36,-88 1,-10 -37,-57 -83,-105 -47,-48 -96,-100 -111,-117 -81,-92 -320,-380 -365,-440 -29,-38 -54,-72 -56,-74 -2,-2 -4,67 -3,155 v 159 l 42,30 c 27,19 72,75 127,157 93,138 309,416 325,417 6,1 24,-10 40,-23 z m -3065,-148 -1,-103 -172,-176 c -294,-300 -397,-419 -362,-419 21,0 69,38 120,96 33,37 76,86 95,108 33,37 146,158 267,286 l 53,55 v -83 -83 l -87,-107 c -48,-59 -142,-163 -208,-232 -130,-135 -175,-190 -175,-215 0,-14 3,-14 28,-1 63,32 183,160 366,386 38,47 72,86 76,88 4,1 8,-42 8,-97 2,-120 8,-110 -168,-261 -92,-79 -126,-116 -142,-151 l -22,-46 -40,9 c -109,24 -185,78 -222,156 -21,45 -27,74 -31,156 -4,99 -4,102 26,146 31,45 569,590 583,590 5,0 8,-46 8,-102 z m 3160,-306 v -218 l -92,-94 c -170,-174 -246,-257 -282,-307 l -35,-49 -98,-18 c -54,-10 -104,-20 -110,-23 -16,-6 -19,192 -3,202 6,3 36,39 67,78 82,103 85,106 118,146 17,20 33,40 38,46 87,116 377,455 390,455 4,0 7,-98 7,-218 z m -3918,-4 5,-168 h -28 c -32,0 -98,47 -142,102 -53,66 -37,138 39,183 34,20 114,54 120,51 1,-1 4,-76 6,-168 z m 4176,121 c 50,-28 73,-62 74,-109 0,-47 -26,-87 -94,-141 -33,-26 -60,-39 -80,-39 h -31 l 6,98 c 4,53 7,129 7,169 v 72 l 41,-14 c 22,-8 57,-24 77,-36 z m -261,-467 c -17,-176 -93,-256 -280,-296 l -68,-14 58,62 c 32,34 90,97 129,141 113,126 158,175 163,175 2,0 1,-31 -2,-68 z M 5238,5695 c -3,-3 -265,44 -285,50 -20,7 50,83 213,234 l 69,63 3,-172 c 1,-95 1,-174 0,-175 z m 27,-1582 c 12,-94 24,-120 86,-182 129,-129 310,-182 699,-202 113,-6 207,-13 209,-15 5,-4 -42,-94 -69,-134 -10,-14 -23,-42 -30,-63 l -12,-39 -82,7 c -44,4 -125,12 -178,19 l -98,12 17,-20 c 15,-18 14,-18 -8,2 -14,12 -33,22 -44,22 -54,0 -342,69 -485,117 -255,84 -404,173 -440,262 l -14,34 73,69 c 40,37 77,68 83,68 5,0 22,8 36,19 39,27 169,67 224,70 25,1 27,-3 33,-46 z m 2593,8 c 15,0 54,-10 87,-23 104,-40 101,-28 38,-153 -71,-139 -112,-238 -119,-287 -6,-34 -10,-39 -48,-49 -22,-5 -56,-14 -73,-19 -18,-5 -33,-5 -33,-1 0,23 87,237 139,343 34,67 61,126 61,130 0,4 -8,8 -18,8 -21,0 -56,-65 -46,-82 4,-7 2,-8 -4,-4 -12,7 -143,-252 -178,-353 -20,-57 -31,-65 -107,-76 l -47,-7 46,108 c 92,223 105,246 144,261 72,30 83,59 55,139 -7,23 -12,50 -9,61 5,18 10,20 45,12 22,-5 52,-9 67,-8 z m 315,-164 c 23,-21 37,-44 37,-58 0,-43 -62,-151 -98,-172 -42,-25 -185,-87 -189,-83 -9,9 60,193 106,284 l 52,103 27,-20 c 15,-11 44,-35 65,-54 z m -566,-74 c -11,-19 -125,-273 -145,-324 -9,-22 -18,-27 -64,-32 -83,-10 -95,-9 -93,11 0,9 5,23 9,31 36,58 116,237 111,250 -5,16 17,24 183,70 2,1 1,-2 -1,-6 z m 644,-46 c -10,-9 -11,-8 -5,6 3,10 9,15 12,12 3,-3 0,-11 -7,-18 z M 4805,3648 c -16,-43 -33,-78 -36,-78 -10,0 -30,51 -39,100 -8,41 -2,101 15,148 3,8 22,-8 48,-40 l 42,-52 z m 2579,160 c -4,-12 -35,-80 -70,-149 -66,-131 -77,-162 -49,-139 25,21 17,5 -11,-21 -16,-15 -24,-19 -22,-9 2,8 -1,14 -7,13 -45,-7 -145,-14 -145,-11 0,17 63,184 87,233 l 31,60 88,21 c 49,12 93,22 97,23 5,0 5,-9 1,-21 z m -266,-89 c -43,-79 -78,-170 -78,-204 v -34 l -87,-3 c -49,-2 -91,-1 -96,3 -12,9 29,130 70,202 35,64 38,67 82,73 25,3 62,10 81,14 49,10 55,-1 28,-51 z m -208,16 c 0,-3 -11,-23 -25,-44 -27,-44 -70,-145 -80,-190 -6,-28 -8,-29 -73,-33 -37,-2 -70,-3 -74,-1 -10,5 34,139 67,205 27,54 31,57 69,61 72,6 116,7 116,2 z m -208,-11 c 3,-3 -9,-33 -26,-67 -18,-34 -43,-92 -57,-129 l -24,-68 h -77 c -45,0 -78,4 -78,10 0,11 52,169 71,217 13,32 14,32 94,36 44,1 83,4 86,5 3,1 8,-1 11,-4 z m -219,-21 c -4,-10 -21,-47 -38,-83 -17,-36 -37,-84 -45,-107 l -13,-43 h -76 c -42,0 -86,3 -98,6 -19,5 -20,9 -11,35 5,16 30,64 54,106 24,43 44,83 44,90 0,10 25,13 95,13 86,0 94,-2 88,-17 z m -1573,-29 39,-26 -25,-49 c -13,-27 -30,-72 -37,-99 l -13,-49 -32,30 c -18,17 -32,38 -32,47 0,20 50,172 56,172 2,0 22,-12 44,-26 z m 3407,-24 c -9,-72 -33,-117 -97,-180 -117,-116 -312,-183 -700,-240 -240,-35 -273,-39 -434,-50 -157,-11 -920,-13 -983,-3 -26,4 -33,10 -33,28 0,12 -8,30 -19,39 -17,15 -19,15 -25,1 -3,-9 -6,-28 -6,-41 0,-23 -2,-24 -81,-24 h -82 l 7,41 c 4,23 16,64 28,91 l 21,50 71,-7 c 39,-4 72,-8 73,-9 1,-1 -2,-19 -8,-40 -9,-31 -8,-42 4,-54 14,-13 17,-10 26,24 6,22 11,44 11,50 0,9 84,10 318,6 376,-6 675,9 706,36 11,9 16,11 12,5 -10,-17 0,-17 189,7 312,39 553,90 710,152 115,45 160,70 230,127 28,22 54,40 59,41 5,0 6,-22 3,-50 z m -3273,-57 55,-26 -26,-50 c -13,-27 -27,-74 -30,-103 -3,-30 -9,-54 -12,-54 -3,0 -30,12 -59,27 -51,26 -52,28 -46,63 10,62 44,170 54,170 5,0 34,-12 64,-27 z m 254,-101 132,-45 -23,-41 c -13,-23 -34,-67 -47,-98 -13,-32 -28,-58 -33,-58 -5,0 -27,5 -48,12 -35,10 -39,15 -39,44 0,18 9,61 20,96 24,77 25,90 4,86 -16,-3 -62,-124 -66,-175 -3,-28 -3,-28 -67,-2 -51,22 -51,22 -51,68 0,88 38,179 69,165 9,-4 76,-28 149,-52 z m 582,-67 c 19,-19 32,-35 29,-35 -3,0 -20,16 -39,35 -19,19 -32,35 -29,35 3,0 20,-16 39,-35 z m 1320,22 c 0,-2 -12,-14 -27,-28 l -28,-24 24,28 c 23,25 31,32 31,24 z m -1622,-30 c 35,-7 63,-16 62,-20 0,-4 -16,-39 -35,-79 -19,-40 -35,-78 -35,-85 0,-22 -21,-25 -101,-13 -50,8 -79,17 -79,25 0,25 52,154 73,182 5,7 19,10 31,8 11,-3 49,-11 84,-18 z m 216,-37 c 39,-6 72,-12 74,-14 2,-2 -6,-23 -18,-47 -12,-23 -25,-63 -29,-88 l -6,-46 -60,2 c -33,2 -80,5 -103,9 -41,5 -43,7 -38,31 4,13 21,56 38,94 34,77 29,75 142,59 z m 396,-265 c 13,-14 21,-25 18,-25 -2,0 -15,11 -28,25 -13,14 -21,25 -18,25 2,0 15,-11 28,-25 z m 690,12 c 0,-2 -12,-14 -27,-28 l -28,-24 24,28 c 23,25 31,32 31,24 z"
       id="path1183"
       style="fill:#000000" />
    <path
       d="m 7040,9378 c -36,-45 -81,-112 -100,-149 -19,-37 -45,-85 -58,-108 -22,-40 -22,-41 -3,-41 25,0 73,59 107,130 14,30 53,92 86,138 53,73 67,112 41,112 -4,0 -37,-37 -73,-82 z"
       id="path1185"
       style="fill:#000000" />
    <path
       d="m 7204,9343 c -41,-44 -209,-304 -227,-351 -19,-47 -23,-122 -7,-122 6,0 39,57 73,128 35,70 93,172 129,227 36,55 68,108 71,117 11,30 -12,30 -39,1 z"
       id="path1187"
       style="fill:#000000" />
    <path
       d="m 7350,9275 c -10,-12 -10,-18 0,-31 12,-13 15,-13 28,0 15,15 10,46 -6,46 -5,0 -15,-7 -22,-15 z"
       id="path1189"
       style="fill:#000000" />
    <path
       d="m 7283,9176 c -27,-42 -92,-144 -145,-228 -97,-149 -119,-200 -79,-179 37,20 104,108 173,226 38,66 83,142 99,168 33,56 34,60 14,77 -12,10 -22,0 -62,-64 z"
       id="path1191"
       style="fill:#000000" />
    <path
       d="m 6345,6884 c -212,-33 -474,-215 -646,-449 -109,-149 -149,-259 -156,-430 -5,-104 -2,-133 18,-210 12,-50 31,-109 42,-133 19,-43 19,-43 40,-25 l 22,18 -20,-23 -20,-24 34,-61 c 121,-219 360,-414 588,-479 119,-35 312,-33 445,4 285,80 553,295 690,555 110,210 126,401 51,603 -79,211 -280,424 -511,541 -75,39 -86,42 -105,29 -20,-12 -21,-12 -8,3 15,19 6,24 -114,58 -69,20 -280,34 -350,23 z m -125,-79 c 13,-14 21,-25 18,-25 -2,0 -15,11 -28,25 -13,14 -21,25 -18,25 2,0 15,-11 28,-25 z m 66,-67 c 10,-13 12,-18 5,-11 -11,9 -26,-3 -77,-63 -65,-77 -75,-94 -50,-94 14,0 31,18 120,129 45,56 53,61 88,61 h 39 l -32,-40 c -28,-35 -30,-42 -18,-57 11,-13 11,-15 1,-9 -17,10 -41,-20 -42,-51 0,-13 3,-23 6,-23 20,0 44,26 62,69 12,27 33,63 48,80 22,26 32,31 67,30 23,-1 55,-4 70,-8 l 28,-6 -45,-62 c -50,-68 -67,-113 -44,-113 19,0 51,35 77,85 39,75 46,80 90,69 36,-10 42,-9 68,15 l 27,26 -24,-28 c -17,-20 -21,-30 -13,-35 9,-6 -1,-29 -34,-77 -40,-62 -73,-124 -73,-140 0,-3 6,-5 14,-5 21,0 72,63 106,130 16,32 33,61 37,63 8,5 61,-17 91,-36 12,-8 -8,-51 -65,-136 -23,-34 -30,-71 -14,-71 14,0 77,92 90,133 7,20 17,39 22,43 6,3 28,-6 50,-20 33,-23 38,-29 29,-46 -5,-10 -14,-21 -19,-25 -17,-10 -90,-124 -97,-149 -14,-58 24,-23 101,92 27,39 52,72 57,72 5,0 27,-17 48,-37 l 40,-38 -39,-41 c -52,-53 -91,-112 -91,-135 0,-34 28,-20 61,29 18,26 47,64 65,84 l 33,37 39,-47 c 57,-69 94,-139 87,-162 -3,-11 -35,-59 -69,-107 -92,-129 -113,-176 -72,-160 18,7 97,112 134,179 15,26 30,48 33,48 8,0 28,-74 31,-116 2,-26 -9,-45 -61,-105 -64,-75 -109,-154 -96,-167 3,-4 12,1 19,10 7,10 15,15 18,13 3,-3 32,29 64,70 32,41 60,71 62,66 8,-24 -33,-166 -69,-241 -85,-171 -229,-318 -420,-425 -32,-19 -59,-31 -59,-27 0,4 11,25 25,47 27,45 33,85 11,85 -15,0 -86,-118 -86,-144 0,-27 -121,-58 -244,-64 l -109,-4 7,27 c 4,15 27,57 52,92 40,57 50,93 27,93 -4,0 -29,-27 -56,-59 -50,-62 -81,-123 -69,-136 11,-12 -68,1 -106,16 l -33,14 40,55 c 22,30 54,75 72,98 24,34 28,47 19,55 -9,9 -15,7 -26,-8 -45,-63 -140,-184 -144,-184 -3,-1 -19,8 -37,18 -30,19 -31,21 -21,58 5,21 26,65 45,97 25,43 31,62 23,70 -8,8 -17,3 -33,-18 -29,-39 -77,-128 -77,-143 0,-7 -6,-13 -12,-13 -24,1 -48,27 -48,53 0,26 50,129 76,159 11,12 12,18 4,23 -15,9 -50,-32 -91,-107 -18,-32 -35,-58 -39,-58 -3,0 -19,13 -34,29 -27,29 -28,30 -16,87 7,32 32,95 57,141 44,82 50,121 12,87 -21,-19 -109,-195 -109,-219 0,-26 -15,-17 -47,28 -47,65 -55,84 -44,104 5,10 17,39 26,65 9,25 34,74 56,107 23,33 38,65 34,71 -5,8 -11,8 -21,-1 -7,-6 -12,-15 -9,-19 2,-4 -7,-18 -21,-31 -36,-33 -76,-105 -84,-148 l -7,-36 -22,50 c -28,61 -23,97 27,197 20,40 38,76 40,81 2,4 -2,7 -10,7 -7,0 -33,-32 -58,-70 -36,-58 -45,-68 -53,-54 -14,24 -1,106 23,153 22,43 12,56 -14,19 -16,-22 -16,-21 -16,19 0,89 78,274 165,392 68,91 175,201 217,222 22,11 42,19 44,16 2,-2 -14,-25 -37,-51 -23,-26 -38,-50 -35,-54 12,-12 40,14 81,73 36,53 46,60 103,79 35,12 60,25 56,29 -4,4 -5,7 -2,7 3,0 13,-10 24,-22 z M 5720,5707 c 0,-2 -10,-12 -22,-23 l -23,-19 19,23 c 18,21 26,27 26,19 z m 1626,-29 29,-33 -32,29 c -31,28 -38,36 -30,36 2,0 16,-15 33,-32 z"
       id="path1193"
       style="fill:#000000" />
    <path
       d="m 6450,6400 c -19,-4 -48,-11 -65,-15 -97,-21 -233,-133 -278,-229 -36,-76 -34,-86 10,-45 29,26 27,22 -9,-17 -36,-40 -48,-62 -54,-99 -29,-196 83,-408 263,-497 65,-32 72,-33 183,-33 107,1 121,3 195,34 197,80 325,251 325,431 0,44 -5,64 -22,86 -14,18 -16,24 -5,15 21,-16 21,-14 3,36 -31,89 -118,194 -211,256 -54,35 -114,59 -132,53 -8,-3 -12,-2 -9,3 12,19 -136,35 -194,21 z m -80,-43 c 0,-2 -10,-12 -22,-23 l -23,-19 19,23 c 18,21 26,27 26,19 z m 326,-29 29,-33 -32,29 c -31,28 -38,36 -30,36 2,0 16,-15 33,-32 z m -376,-21 c 0,-2 -17,-19 -37,-38 l -38,-34 34,38 c 33,34 41,42 41,34 z m 466,-69 29,-33 -32,29 c -31,28 -38,36 -30,36 2,0 16,-15 33,-32 z m -140,-13 c 115,-51 193,-142 215,-252 11,-55 11,-69 -5,-119 -44,-140 -242,-259 -399,-241 -146,18 -271,159 -284,320 -5,54 -2,70 20,114 47,91 135,164 242,199 54,18 143,9 211,-21 z m -406,1 c 0,-2 -8,-10 -17,-17 -16,-13 -17,-12 -4,4 13,16 21,21 21,13 z m 625,-66 c 21,-22 37,-40 34,-40 -3,0 -23,18 -44,40 -21,22 -37,40 -34,40 3,0 23,-18 44,-40 z m -665,26 c 0,-2 -8,-10 -17,-17 -16,-13 -17,-12 -4,4 13,16 21,21 21,13 z m 740,-101 c 13,-14 21,-25 18,-25 -2,0 -15,11 -28,25 -13,14 -21,25 -18,25 2,0 15,-11 28,-25 z"
       id="path1195"
       style="fill:#000000" />
    <path
       d="m 7139,6263 c -71,-88 -102,-140 -95,-158 10,-28 31,-15 64,43 18,31 51,80 72,107 22,28 40,56 40,63 0,28 -29,8 -81,-55 z"
       id="path1197"
       style="fill:#000000" />
    <path
       d="m 6597,5345 c -52,-66 -75,-121 -57,-138 13,-13 12,-15 90,102 27,41 47,78 44,83 -12,19 -37,4 -77,-47 z"
       id="path1199"
       style="fill:#000000" />
    <path
       d="m 8236,6289 c -77,-79 -227,-254 -324,-379 -49,-62 -85,-126 -80,-142 7,-21 120,95 193,197 28,41 204,250 264,315 28,30 51,60 51,67 0,35 -30,18 -104,-58 z"
       id="path1201"
       style="fill:#000000" />
  </g>
  <g
     id="g2052"
     inkscape:label="color"
     transform="translate(-261.55503,-78.355234)">
    <path
       style="fill:#00ff00;fill-rule:evenodd;stroke-width:2.15589"
       d="m 737.29633,1443.3077 c -39.86004,-3.2846 -76.79229,-13.6554 -97.58274,-27.4017 -14.80929,-9.7917 -18.40535,-14.8073 -14.94273,-20.8413 1.91181,-3.3316 2.44299,-23.7595 2.02347,-77.8176 -1.17674,-151.6293 -8.35324,-540.63835 -11.17598,-605.80431 -0.97587,-22.52903 -1.58519,-41.18131 -1.35404,-41.44953 0.23114,-0.26822 49.84011,2.8724 110.24215,6.97914 151.28205,10.28571 213.64343,12.51053 273.76871,9.76708 26.83393,-1.22441 49.58553,-2.71854 50.55923,-3.32029 0.9736,-0.60175 7.4364,-1.5301 14.3618,-2.063 6.9253,-0.5329 21.6333,-2.84368 32.6843,-5.13507 l 20.0928,-4.16616 -1.3155,44.48661 c -1.9535,66.06201 -5.4464,431.94833 -5.4503,570.93163 v 121.1382 l -18.864,5.7883 c -51.6966,15.8627 -100.84367,24.9699 -155.76283,28.8637 -34.99843,2.4814 -167.34468,2.5111 -197.28078,0.044 z m 158.02566,-256.6856 c 50.06804,-7.8238 111.34891,-47.1674 147.27691,-94.5551 14.617,-19.2793 31.2443,-53.4593 36.7391,-75.523 3.7922,-15.2271 4.3504,-22.25168 3.3405,-42.03981 -1.3474,-26.40089 -5.3307,-41.47328 -17.104,-64.71978 -14.9249,-29.46921 -39.7788,-57.78675 -71.19051,-81.11164 -17.41457,-12.93124 -50.20302,-30.60966 -54.24348,-29.24624 -1.28126,0.43234 -3.29971,-0.51599 -4.48545,-2.1074 -3.89854,-5.23234 -31.82316,-11.59901 -62.1803,-14.17678 -26.13256,-2.21905 -32.0111,-2.0855 -47.29266,1.07438 -35.02509,7.24241 -73.29037,30.2698 -108.34943,65.20284 -45.51398,45.35038 -63.5209,85.04106 -63.5209,140.01222 0,49.33721 31.90055,112.30081 75.90399,149.81521 51.27766,43.7159 99.6675,57.6007 165.10623,47.3751 z"
       id="path1883"
       transform="scale(0.75)"
       inkscape:export-filename="amarillo.svg"
       inkscape:export-xdpi="96"
       inkscape:export-ydpi="96" />
    <path
       style="fill:#00ff00;fill-rule:evenodd;stroke-width:2.15589"
       d="m 844.02985,1156.2323 c 0,-1.6193 4.23658,-9.7519 9.41462,-18.0725 11.17317,-17.9541 13.30452,-23.6725 9.66217,-25.9236 -3.65057,-2.2562 -21.29248,17.7809 -27.69948,31.4601 -3.79203,8.0962 -6.22011,10.7813 -9.74916,10.7813 -4.21619,0 -18.06594,-3.8767 -20.19849,-5.6538 -0.46327,-0.386 4.46809,-7.7607 10.95859,-16.3881 14.33739,-19.0577 17.52204,-24.7924 15.98804,-28.7899 -2.15843,-5.6248 -5.09216,-3.1966 -19.47282,16.1176 -18.4565,24.7882 -19.19438,25.381 -26.02369,20.9063 -2.97028,-1.9462 -5.40051,-5.2988 -5.40051,-7.4501 0,-2.1514 4.00915,-11.896 8.90922,-21.6547 6.52268,-12.9902 8.26884,-18.3835 6.51861,-20.1338 -3.6861,-3.6861 -9.8178,3.131 -19.12671,21.2647 -4.48718,8.741 -9.39198,15.8968 -10.89958,15.9019 -1.50759,0 -3.90836,-2.5526 -5.33503,-5.6839 -2.3313,-5.1166 -1.5813,-7.6257 7.40692,-24.7797 15.18511,-28.9807 4.36868,-27.4856 -12.73984,1.761 l -7.94843,13.5876 -6.20302,-5.9122 c -5.39498,-5.142 -6.03223,-6.993 -4.89198,-14.2093 0.72107,-4.5634 5.64994,-17.7628 10.95305,-29.3319 9.53838,-20.8088 11.52593,-28.1255 7.64014,-28.1255 -1.10105,0 -3.48651,1.4846 -5.30104,3.2991 -4.13488,4.1349 -22.87949,41.3526 -22.87949,45.4275 0,1.6581 -0.94438,3.0147 -2.09861,3.0147 -2.89774,0 -17.30437,-21.7593 -17.30437,-26.1359 0,-1.9562 5.82089,-14.9338 12.93532,-28.8392 7.11443,-13.9054 12.93532,-26.1425 12.93532,-27.1935 0,-3.5015 -6.5818,-1.9685 -7.99333,1.8618 -0.76469,2.075 -4.57533,7.5393 -8.46809,12.1429 -3.89276,4.6035 -9.23911,13.5847 -11.88078,19.9582 l -4.80303,11.5882 -2.83037,-6.7315 c -4.82793,-11.4822 -3.40016,-21.4554 5.79318,-40.466 9.46253,-19.56733 10.04704,-21.82347 5.654,-21.82347 -1.63325,0 -7.36224,6.36205 -12.73107,14.1379 -5.81647,8.42417 -10.36606,13.15967 -11.2574,11.71747 -1.8717,-3.0285 0.18541,-15.18651 4.82234,-28.50126 3.77615,-10.84304 2.77845,-14.80048 -2.60492,-10.33267 -4.38895,3.6425 -4.36017,-0.55022 0.12333,-17.97061 8.58462,-33.35505 30.95514,-69.70142 60.98838,-99.09053 20.45441,-20.01572 28.58531,-24.45287 17.70984,-9.66453 -4.24767,5.77593 -5.90873,9.80016 -4.58965,11.11925 2.73221,2.73221 6.86844,-0.84846 18.61669,-16.11618 7.23163,-9.39805 11.89829,-13.20624 19.72855,-16.0993 5.64098,-2.08419 11.46902,-4.71132 12.95119,-5.83806 5.97217,-4.54004 2.06058,1.77855 -8.86319,14.31715 -13.09996,15.03651 -17.40598,22.13427 -14.51298,23.92224 3.7214,2.29995 8.30082,-1.23728 19.54712,-15.09859 18.37188,-22.64373 22.88182,-26.81737 28.97833,-26.81737 h 5.63329 l -5.7358,8.66738 c -3.15469,4.76705 -5.11492,9.28824 -4.35608,10.04709 0.75885,0.75884 -0.5544,2.73443 -2.91834,4.3902 -2.87846,2.01615 -4.29806,5.46232 -4.29806,10.43383 0,13.35456 7.99622,7.59213 19.55313,-14.09086 9.42634,-17.68562 13.41258,-20.18788 28.60746,-17.95757 l 11.88014,1.74376 -10.71607,15.93855 c -10.25456,15.25211 -12.18869,21.59532 -7.10112,23.28899 3.28467,1.09347 13.46812,-9.58641 18.44749,-19.34677 6.69936,-13.13184 10.51283,-15.88476 20.66342,-14.91674 4.90292,0.46756 9.39615,2.10561 9.98499,3.64009 0.58884,1.53448 -3.3736,9.92779 -8.8054,18.6518 -5.4318,8.724 -11.20442,19.03675 -12.82807,22.91721 -2.63989,6.3093 -2.56386,7.20434 0.71904,8.4641 4.78706,1.83697 16.93281,-11.70299 26.35429,-29.3795 3.83688,-7.19871 7.64685,-13.04198 8.46663,-12.98502 3.36536,0.2338 16.3203,7.60255 16.98511,9.66109 0.39414,1.22047 -3.64233,9.46674 -8.96998,18.32504 -9.07055,15.08169 -12.3099,25.8075 -7.79422,25.8075 3.31349,0 13.0531,-12.91197 19.75679,-26.19191 3.50215,-6.93773 7.26965,-12.61406 8.37219,-12.61406 1.10254,0 4.72666,2.36659 8.05356,5.25909 4.47704,3.89247 5.48867,6.03572 3.89301,8.24777 -12.79234,17.73392 -24.7927,37.41783 -24.7927,40.66693 0,8.35931 6.56985,3.42596 20.2394,-15.19791 7.76417,-10.57819 14.91215,-19.72469 15.88436,-20.32556 0.97224,-0.60088 5.61154,2.16064 10.30954,6.1367 l 8.54186,7.22921 -8.95592,9.32356 c -17.85818,18.59132 -25.14611,34.11626 -16.01537,34.11626 2.62108,0 8.79906,-6.11264 16.88668,-16.70812 7.01441,-9.18947 13.74431,-16.70813 14.95541,-16.70813 1.2111,0 4.9103,3.21859 8.2204,7.15243 l 6.0183,7.15243 -9.8076,10.09467 c -21.50978,22.13925 -33.65183,45.6668 -23.56762,45.6668 2.55759,0 9.43339,-8.1687 19.94192,-23.69179 8.8212,-13.03049 16.7412,-23.70213 17.6001,-23.71476 2.241,-0.033 8.1399,11.98508 8.1399,16.58375 0,2.13703 -7.7612,15.46179 -17.2471,29.61057 -9.4859,14.14878 -17.2471,27.48579 -17.2471,29.6378 0,11.15642 14.1352,-2.22881 31.8911,-30.19896 l 10.0216,-15.78666 2.5944,7.16311 c 5.5126,15.22024 3.9921,20.5169 -11.9117,41.49404 -16.0164,21.12563 -19.6601,27.12293 -19.6601,32.35983 0,6.9473 6.5252,2.8865 21.4237,-13.3325 17.0118,-18.51962 17.251,-18.22332 8.2669,10.2404 -11.7888,37.35 -36.5377,70.2119 -73.88625,98.1074 -15.75399,11.7666 -35.57214,23.9158 -35.57214,21.8069 0,-0.6738 2.0836,-5.5138 4.63022,-10.7555 4.4305,-9.1193 4.36486,-16.4556 -0.14724,-16.4556 -2.71551,0 -14.53486,17.135 -18.70698,27.1203 -4.84152,11.5874 -18.27921,16.0764 -57.45929,19.1948 -15.2388,1.2129 -18.86401,0.9357 -18.86401,-1.4427 z m 43.23195,-10.878 c 12.10409,-16.7092 19.95971,-32.03 17.62191,-34.3678 -6.50823,-6.5082 -30.67144,23.424 -30.67144,37.9943 0,8.3103 5.51222,6.7784 13.04953,-3.6265 z m 30.52494,-59.3014 c 44.29314,-21.967 66.78385,-57.4877 63.48961,-100.2722 -1.90324,-24.71853 -9.97922,-40.70968 -31.42245,-62.21911 -8.99509,-9.02289 -20.36584,-18.44441 -25.26833,-20.93673 -35.31567,-17.95372 -74.37806,-18.42925 -103.76168,-1.26314 -21.98435,12.8434 -44.58198,40.04731 -46.77888,56.31426 -0.4461,3.30309 -2.34469,9.61251 -4.21909,14.02094 -9.42602,22.16918 0.99169,65.63588 21.67784,90.44818 9.20939,11.0464 26.46491,24.4993 38.51282,30.0258 7.25742,3.3291 13.43329,3.8816 38.98443,3.4878 l 30.36087,-0.468 z"
       id="path1885"
       transform="scale(0.75)" />
    <path
       style="fill:#00ff00;fill-rule:evenodd;stroke-width:2.15589"
       d="m 836.48425,525.72957 c -4.74296,-0.36301 -23.17579,-1.72272 -40.96186,-3.02158 -66.00854,-4.82039 -148.80382,-18.10161 -181.7117,-29.14844 -44.58459,-14.96653 -50.67705,-24.13744 -44.63836,-67.19348 5.97377,-42.59326 21.51707,-87.53628 40.25352,-116.392 13.24865,-20.40405 47.0041,-54.3089 67.52274,-67.8216 17.04179,-11.223 59.73329,-33.0619 67.91045,-34.73969 2.96434,-0.60822 14.68194,-3.55181 26.0391,-6.54131 18.82401,-4.95496 75.20621,-13.00912 77.20265,-11.02834 0.46041,0.4568 -4.1478,6.91741 -10.24046,14.35692 -10.56486,12.90033 -13.91923,21.09017 -8.63802,21.09017 2.35115,0 11.76233,-9.37111 27.85269,-27.73415 5.8634,-6.69159 8.75143,-8.45011 12.33751,-7.51233 4.63121,1.21109 4.61127,1.32732 -1.83556,10.69747 -7.0401,10.23241 -14.79982,26.1302 -14.87621,30.4777 -0.12525,7.13116 7.49111,1.15289 16.4798,-12.93533 15.58629,-24.42881 16.70196,-25.33167 31.30299,-25.33167 h 12.58432 l -9.45089,11.60316 c -10.74022,13.18609 -17.14987,27.96476 -16.10379,37.13036 1.03959,9.10861 4.19596,7.69832 11.49181,-5.13459 3.55721,-6.2569 10.40237,-17.41362 15.21148,-24.7927 7.77489,-11.92979 9.61052,-13.48972 16.56509,-14.0771 9.61724,-0.81227 25.35444,3.19839 25.35444,6.46163 0,1.32056 -5.78164,11.41599 -12.84808,22.4343 -14.12087,22.01787 -26.69111,46.06647 -28.93289,55.35263 -1.08678,4.50176 -0.54902,6.31896 2.17988,7.36614 4.77344,1.83174 9.83859,-4.59261 20.71799,-26.2775 12.4838,-24.88278 26.88083,-49.42872 31.37957,-53.50003 3.60779,-3.26499 4.91919,-3.1856 18.0844,1.09472 l 14.19454,4.61499 -11.12242,13.11572 c -11.66092,13.75074 -26.39759,36.55333 -37.73538,58.38936 -6.52359,12.56409 -6.58723,12.95577 -2.21714,13.64754 6.22978,0.98616 11.74769,-4.63513 21.84888,-22.2583 4.7615,-8.3072 14.36751,-23.88348 21.34665,-34.61395 6.97921,-10.73048 12.68941,-20.67451 12.68941,-22.09785 0,-1.42334 0.3982,-2.58789 0.8849,-2.58789 2.1602,0 33.5169,18.52871 42.878,25.33674 10.1542,7.38474 10.2618,7.58422 5.7839,10.72068 -2.5096,1.75776 -4.043,4.55049 -3.4077,6.20607 0.6353,1.65558 -0.041,3.01015 -1.5029,3.01015 -3.8922,0 -66.19508,98.33166 -66.19508,104.47464 0,0.64011 1.7434,1.16383 3.87424,1.16383 4.89578,0 16.73854,-12.32572 28.18404,-29.33339 12.9997,-19.31712 41.2419,-68.21231 41.2419,-71.4013 0,-1.51134 0.8219,-2.7479 1.8264,-2.7479 1.0046,0 2.7345,-2.03506 3.8444,-4.52237 1.9233,-4.31026 2.5454,-4.04809 13.2648,5.5895 6.1857,5.56154 11.2468,10.91291 11.2468,11.89194 0,0.97904 -4.4177,6.95257 -9.8172,13.27451 -20.0093,23.42786 -78.57417,112.25217 -78.57417,119.17216 0,6.17577 8.04597,3.4345 16.10647,-5.48756 7.771,-8.60155 12.7065,-15.93569 47.0073,-69.85184 9.0522,-14.22886 20.7088,-30.6773 25.9036,-36.5521 l 9.4449,-10.68144 7.8999,11.73061 c 4.3449,6.45184 7.8784,13.19879 7.8522,14.99322 -0.026,1.79444 -12.2963,19.75515 -27.267,39.91269 -38.7498,52.17551 -54.8147,77.16399 -56.1873,87.39797 -0.63,4.69645 -0.2378,8.53901 0.8715,8.53901 3.961,0 15.5607,-14.53859 39.5619,-49.5854 43.4884,-63.50213 49.659,-71.57037 52.765,-68.99255 1.5438,1.28119 4.9525,7.61613 7.5751,14.07764 l 4.7682,11.74819 -7.1848,11.3429 c -6.9171,10.92016 -21.0441,30.86899 -50.5481,71.37937 -11.4537,15.7264 -13.8923,20.55136 -13.8923,27.48756 0,6.68463 0.8026,8.41294 3.9064,8.41294 4.6649,0 6.0136,-1.77904 43.8411,-57.83351 l 29.5715,-43.82025 2.3993,8.24811 c 1.3196,4.53646 2.9677,13.25594 3.6623,19.37662 1.4514,12.78799 2.3028,11.26479 -27.8168,49.76681 -24.2277,30.97033 -27.5193,36.5087 -27.5292,46.319 -0.01,6.56659 -0.8987,8.2506 -4.8588,9.17142 -68.294,15.88031 -92.83639,18.42342 -173.65931,17.9948 -37.58645,-0.19933 -72.21959,-0.65942 -76.96254,-1.02245 z M 988.55646,317.83492 c 7.35735,-14.18974 19.58884,-35.72391 27.18104,-47.85371 17.547,-28.03438 20.4398,-37.671 9.5603,-31.84846 -6.3024,3.37291 -49.94079,69.86716 -54.494,83.03548 -3.84151,11.10994 -4.99351,23.02792 -2.46982,25.55159 2.73334,2.73334 6.95512,-3.29687 20.22248,-28.8849 z"
       id="path1887"
       transform="scale(0.75)" />
    <path
       style="fill:#00ff00;fill-rule:evenodd;stroke-width:2.15589"
       d="M 825.70481,579.95403 C 595.66536,565.39398 527.87356,552.31127 511.943,519.40311 c -7.72913,-15.96625 -1.3011,-32.37332 19.15068,-48.88072 10.97551,-8.85874 15.41731,-10.0995 15.43576,-4.31178 0.0797,25.00382 25.89266,46.29022 72.68508,59.93898 23.88395,6.96665 64.50857,13.85885 133.19012,22.59646 53.06889,6.75138 55.40467,6.86149 151.99005,7.16481 l 98.09291,0.30805 34.4942,-6.11413 c 40.16,-7.11839 96.4281,-20.88379 118.3565,-28.95466 12.2724,-4.51688 17.9808,-8.29277 28.7828,-19.03838 7.4108,-7.37223 13.4743,-14.9491 13.4743,-16.83749 0,-5.81066 5.5577,-3.8361 14.5704,5.17658 16.6175,16.61753 16.7096,27.17118 0.366,41.93666 -11.118,10.04446 -20.1935,14.41553 -53.9064,25.96306 -55.1293,18.88325 -83.7758,22.19216 -204.6453,23.63823 -55.32406,0.66189 -95.81852,0.0196 -128.27529,-2.03475 z"
       id="path1889"
       transform="scale(0.75)" />
    <path
       style="fill:#00ff00;fill-rule:evenodd;stroke-width:2.15589"
       d="M 588.52145,632.79303 C 543.41007,622.59207 517.603,604.94617 501.75589,573.466 c -4.65604,-9.2492 -9.55525,-25.09174 -8.18363,-26.46336 0.45934,-0.45933 6.19817,3.53308 12.75296,8.87203 22.78994,18.56266 44.85417,26.28034 105.94675,37.05832 17.78607,3.13783 32.76383,6.12613 33.2839,6.64067 1.1751,1.1626 -6.60098,17.33531 -13.87668,28.86076 -5.14605,8.15188 -6.01417,8.62018 -15.66146,8.4485 -5.61738,-0.1 -17.99071,-1.94041 -27.49628,-4.08989 z"
       id="path1891"
       transform="scale(0.75)" />
    <path
       style="fill:#00ff00;fill-rule:evenodd;stroke-width:2.15589"
       d="m 641.37645,638.14262 c -1.52967,-1.84314 -1.7474,-3.23383 -0.5063,-3.23383 1.19764,0 5.30608,-7.76119 9.12985,-17.2471 l 6.95232,-17.2471 9.99813,0.033 c 16.51761,0.0545 16.86104,1.24496 6.42812,22.28122 l -9.24827,18.64762 h -10.035 c -6.28993,0 -11.03662,-1.20687 -12.71885,-3.23383 z"
       id="path1893"
       transform="scale(0.75)" />
    <path
       style="fill:#00ff00;fill-rule:evenodd;stroke-width:2.15589"
       d="m 682.87728,642.10454 c -4.15562,-1.67683 -3.32741,-5.41625 5.15607,-23.28004 l 7.85092,-16.53182 14.24692,1.45818 c 7.8358,0.802 15.05314,2.2043 16.03851,3.11623 0.98537,0.91192 -0.11922,5.41153 -2.45466,9.99913 -2.33544,4.58759 -5.47806,12.46421 -6.98359,17.5036 l -2.73733,9.16252 -14.21099,-0.1702 c -7.81605,-0.0936 -15.42368,-0.65953 -16.90585,-1.2576 z"
       id="path1895"
       transform="scale(0.75)" />
    <path
       style="fill:#00ff00;fill-rule:evenodd;stroke-width:2.15589"
       d="m 737.70834,646.28961 -10.38452,-0.8494 1.47724,-6.88262 c 0.81248,-3.78545 3.60504,-12.21845 6.20569,-18.74001 l 4.72845,-11.85738 h 12.80238 c 14.66246,0 14.16834,-1.42358 7.85708,22.63681 -4.6461,17.7123 -3.94268,17.22573 -22.68632,15.6926 z"
       id="path1897"
       transform="scale(0.75)" />
    <path
       style="fill:#00ff00;fill-rule:evenodd;stroke-width:2.15589"
       d="m 770.72968,646.37401 c 0,-1.99429 2.0547,-11.2408 4.566,-20.54779 l 4.56599,-16.92181 16.45391,1.4352 c 9.04965,0.78935 16.85607,1.78752 17.34759,2.21815 0.49153,0.43063 -3.19352,9.0313 -8.189,19.1126 L 796.39148,650 h -12.8309 c -10.58473,0 -12.8309,-0.63476 -12.8309,-3.62599 z"
       id="path1899"
       transform="scale(0.75)" />
    <path
       style="fill:#00ff00;fill-rule:evenodd;stroke-width:2.15589"
       d="m 829.65488,652.15589 c -7.31336,-0.59287 -14.0173,-1.7993 -14.89765,-2.68096 -2.10312,-2.10626 2.13834,-15.5956 8.30834,-26.42352 4.89023,-8.58199 4.98376,-8.62662 19.40676,-9.26102 7.97106,-0.35061 14.49284,0.2548 14.49284,1.34537 0,1.09057 -2.46173,6.38737 -5.47052,11.77068 -3.00878,5.3833 -6.16177,13.50923 -7.00663,18.05761 l -1.53611,8.26978 z"
       id="path1901"
       transform="scale(0.75)" />
    <path
       style="fill:#00ff00;fill-rule:evenodd;stroke-width:2.15589"
       d="m 857.5435,647.30514 c 0.62836,-3.85365 3.61236,-12.58499 6.6311,-19.40298 l 5.48862,-12.39636 h 16.44602 16.44601 l -6.62588,11.58084 c -3.64424,6.36946 -6.62589,14.51193 -6.62589,18.09439 0,7.90682 -2.66229,9.13074 -19.86139,9.13074 h -13.04108 z"
       id="path1903"
       transform="scale(0.75)" />
    <path
       style="fill:#00ff00;fill-rule:evenodd;stroke-width:2.15589"
       d="m 903.04723,647.5748 c 0.74106,-3.70533 3.90527,-12.43667 7.03156,-19.40298 l 5.68417,-12.66602 h 10.35779 c 5.69678,0 10.96512,0.9827 11.70743,2.18377 1.25387,2.02881 -3.50133,16.84845 -9.84868,30.69351 -2.48151,5.41276 -3.74323,5.92869 -14.49885,5.92869 h -11.78082 z"
       id="path1905"
       transform="scale(0.75)" />
    <path
       style="fill:#00ff00;fill-rule:evenodd;stroke-width:2.15589"
       d="m 941.04478,652.80611 c 0,-0.82811 2.45655,-9.55946 5.45901,-19.40298 l 5.45902,-17.89733 h 18.27738 18.27738 l -9.74477,19.40299 -9.74476,19.40298 h -13.99163 c -7.6954,0 -13.99163,-0.67754 -13.99163,-1.50566 z"
       id="path1907"
       transform="scale(0.75)" />
    <path
       style="fill:#00ff00;fill-rule:evenodd;stroke-width:2.15589"
       d="m 986.29135,652.69486 c -0.0149,-0.8893 3.07225,-9.62065 6.86029,-19.40299 l 6.88736,-17.78607 8.7699,-0.2427 c 4.8234,-0.13349 22.5961,-0.8611 39.4949,-1.61692 28.1869,-1.26069 34.3434,-0.63563 28.6144,2.90512 -1.1569,0.71498 -5.5544,7.47092 -9.7723,15.0132 -4.2179,7.54228 -8.8613,14.70289 -10.3188,15.91245 -1.4574,1.20958 -7.489,2.51462 -13.4035,2.90011 -10.3762,0.67628 -10.7286,0.5117 -10.0405,-4.68883 0.3922,-2.96435 2.575,-8.59816 4.8507,-12.51959 5.7817,-9.96279 5.4969,-15.99988 -0.7131,-15.11792 -3.6187,0.51395 -6.9002,4.79551 -12.9203,16.85807 -7.7992,15.6275 -8.377,16.21797 -17.2471,17.62627 -12.69628,2.01579 -21.02983,2.07902 -21.06195,0.1598 z"
       id="path1909"
       transform="scale(0.75)" />
    <path
       style="fill:#00ff00;fill-rule:evenodd;stroke-width:2.15589"
       d="m 1074.7098,644.30278 c 0,-0.71023 4.5531,-8.47881 10.118,-17.2635 6.1261,-9.67069 11.8674,-16.31637 14.5522,-16.84463 2.4388,-0.47986 7.5621,-1.39216 11.3849,-2.02734 l 6.9507,-1.15487 -5.5243,12.33126 c -3.0383,6.78219 -6.3343,14.38178 -7.3245,16.88797 -0.9901,2.5062 -3.5723,5.24413 -5.7381,6.0843 -5.2939,2.05355 -24.4189,3.60963 -24.4189,1.98681 z"
       id="path1911"
       transform="scale(0.75)" />
    <path
       style="fill:#00ff00;fill-rule:evenodd;stroke-width:2.15589"
       d="m 1119.9834,634.24024 c 0,-0.62143 1.9403,-5.6564 4.3118,-11.18883 2.3715,-5.53243 4.3118,-11.88364 4.3118,-14.11381 0,-3.09268 3.1972,-5.04255 13.4743,-8.21736 7.4108,-2.28939 13.8044,-3.85386 14.208,-3.4766 0.8424,0.78755 -10.2814,26.7137 -13.0575,30.43299 -1.0137,1.35814 -5.273,3.11279 -9.465,3.89922 -4.1921,0.78643 -9.0082,1.96186 -10.7027,2.61206 -1.6944,0.65021 -3.0807,0.67375 -3.0807,0.0523 z"
       id="path1913"
       transform="scale(0.75)" />
    <path
       style="fill:#00ff00;fill-rule:evenodd;stroke-width:2.15589"
       d="m 1165.257,616.66462 c 0,-0.54839 2.0314,-6.42631 4.5141,-13.06205 l 4.5141,-12.06498 21.3566,-10.21153 c 11.7461,-5.61634 21.3565,-9.58408 21.3565,-8.8172 0,2.46793 -26.5359,28.26836 -37.8945,36.84417 -10.3432,7.80917 -13.8468,9.6592 -13.8468,7.31159 z"
       id="path1915"
       transform="scale(0.75)" />
    <path
       style="fill:#00ff00;fill-rule:evenodd;stroke-width:2.15589"
       d="m 800.91211,161.58978 c 0,-4.51832 11.83328,-16.20266 20.96128,-20.69744 9.47077,-4.66357 12.98662,-5.07144 43.71533,-5.07144 28.61909,0 34.6134,0.59421 41.75536,4.13922 11.65194,5.7836 21.65091,23.36195 11.97134,21.04579 -5.74285,-1.37416 -106.71559,-0.7111 -112.47462,0.7386 -3.26078,0.82082 -5.92869,0.7512 -5.92869,-0.15473 z"
       id="path1919"
       transform="scale(0.75)" />
    <path
       style="fill:#00ff00;fill-rule:evenodd;stroke-width:2.15589"
       d="m 1107.3403,495.31509 c 3.8319,-5.63225 15.7316,-22.15143 26.4437,-36.70928 14.9423,-20.30651 19.7907,-25.57667 20.8255,-22.63681 0.7419,2.1076 2.5504,13.97347 4.0189,26.36861 3.2073,27.07087 4.8463,25.00222 -28.2996,35.71756 -30.8146,9.96171 -31.5689,9.8718 -22.9885,-2.74008 z"
       id="path1921"
       transform="scale(0.75)" />
    <path
       style="fill:#00ff00;fill-rule:evenodd;stroke-width:2.15589"
       d="m 852.96981,1061.5792 c -27.01445,-5.2152 -51.08879,-32.7274 -56.15271,-64.17156 -2.31161,-14.35376 -0.88448,-22.18078 6.10694,-33.49313 7.3278,-11.85663 25.27236,-27.06071 40.16178,-34.02831 12.24488,-5.73007 15.87601,-6.45977 28.50801,-5.72885 50.20716,2.90512 88.79698,54.69071 69.40905,93.14345 -14.51832,28.7947 -57.15456,50.2396 -88.03307,44.2784 z"
       id="path1923"
       transform="scale(0.75)" />
    <path
       style="fill:#00ff00;fill-rule:evenodd;stroke-width:2.15589"
       d="m 733.00166,1527.2992 c -39.86317,-4.5943 -66.70936,-9.7885 -105.38989,-20.3907 -68.09133,-18.6637 -112.90027,-41.128 -125.74043,-63.0381 l -5.7814,-9.8652 13.89533,-12.5917 c 17.55139,-15.9046 35.62642,-26.1714 56.02996,-31.8255 22.40825,-6.2097 25.1406,-5.9469 26.78526,2.5762 5.27591,27.3411 5.65591,28.1371 20.3269,42.5788 29.72001,29.2554 64.51523,39.0644 160.79794,45.3299 20.13655,1.3104 36.92755,2.6982 37.31333,3.0839 0.38577,0.3858 -4.90812,11.4789 -11.76421,24.6513 l -12.46564,23.9498 -9.75647,-0.2416 c -5.36606,-0.1329 -25.27887,-2.0306 -44.25068,-4.2171 z"
       id="path1925"
       transform="scale(0.75)" />
    <path
       style="fill:#00ff00;fill-rule:evenodd;stroke-width:2.15589"
       d="m 802.0129,1531.7948 c -0.72026,-1.1654 4.19811,-12.8071 10.9297,-25.8706 l 12.23927,-23.7517 h 18.04754 c 9.92615,0 18.04754,0.5994 18.04754,1.3321 0,0.7327 -3.83959,9.8594 -8.53242,20.2815 -4.69283,10.4222 -9.16368,21.4645 -9.93521,24.5385 -1.3772,5.4872 -1.75012,5.5892 -20.44482,5.5892 -10.47312,0 -19.63134,-0.9535 -20.3516,-2.119 z"
       id="path1927"
       transform="scale(0.75)" />
    <path
       style="fill:#00ff00;fill-rule:evenodd;stroke-width:2.15589"
       d="m 854.80929,1535.0239 c 0,-3.7291 15.92715,-47.9782 18.06594,-50.1911 1.45091,-1.5011 10.6341,-3.346 20.40708,-4.0996 l 17.76907,-1.3703 -7.81913,17.035 c -4.30052,9.3692 -9.74857,22.1282 -12.10679,28.3533 l -4.28766,11.3185 h -16.01426 c -8.80784,0 -16.01425,-0.4706 -16.01425,-1.0458 z"
       id="path1929"
       transform="scale(0.75)" />
    <path
       style="fill:#00ff00;fill-rule:evenodd;stroke-width:2.15589"
       d="m 902.23881,1535.4973 c 0,-0.6212 2.05166,-7.7801 4.55925,-15.9087 6.74544,-21.8661 15.85139,-38.763 21.73989,-40.3402 5.70975,-1.5293 25.44215,-1.8615 25.44215,-0.4283 0,0.5276 -3.30435,7.5612 -7.34301,15.6301 -4.03865,8.069 -9.00589,19.7789 -11.0383,26.022 -2.03241,6.2432 -4.34014,11.7497 -5.12829,12.2368 -2.35575,1.456 -28.23169,4.0115 -28.23169,2.7883 z"
       id="path1931"
       transform="scale(0.75)" />
    <path
       style="fill:#00ff00;fill-rule:evenodd;stroke-width:2.15589"
       d="m 949.22409,1532.2261 c -3.40152,-1.4299 -3.30667,-2.5998 1.26143,-15.5594 6.31675,-17.9205 14.85221,-34.6087 19.96968,-39.0439 4.28759,-3.716 31.0011,-8.892 33.5799,-6.5065 0.8512,0.7873 -2.2829,9.6605 -6.96451,19.7182 -4.68165,10.0576 -9.65557,23.3798 -11.05315,29.605 l -2.54105,11.3184 h -9.08894 c -4.99892,0 -11.87812,0.4532 -15.28712,1.0072 -3.409,0.554 -7.8533,0.3114 -9.87624,-0.539 z"
       id="path1933"
       transform="scale(0.75)" />
    <path
       style="fill:#00ff00;fill-rule:evenodd;stroke-width:2.15589"
       d="m 997.09784,1527.5423 c 0,-3.2161 10.05456,-29.3755 17.57496,-45.7255 l 6.6092,-14.369 19.2629,-4.7597 c 10.5947,-2.6178 19.6627,-4.36 20.1513,-3.8714 0.4885,0.4886 -5.86,14.8986 -14.1079,32.0223 -8.248,17.1237 -15.0055,32.608 -15.0168,34.4095 -0.016,2.6059 -3.5425,3.3954 -17.2471,3.8615 -10.4264,0.3547 -17.22656,-0.2641 -17.22656,-1.5677 z"
       id="path1935"
       transform="scale(0.75)" />
    <path
       style="fill:#00ff00;fill-rule:evenodd;stroke-width:2.15589"
       d="m 1046.6833,1520.1598 c 0,-1.9739 3.727,-11.086 8.2822,-20.2491 4.5553,-9.1632 10.6096,-22.4812 13.4541,-29.5956 2.8445,-7.1144 6.1511,-13.6483 7.3479,-14.5197 1.1969,-0.8715 7.5119,-3.1092 14.0335,-4.9728 6.5216,-1.8637 13.4917,-3.8638 15.4892,-4.4449 2.6674,-0.7759 -0.6602,8.5598 -12.5308,35.1553 -8.8894,19.9164 -16.8722,36.9332 -17.7395,37.8151 -0.8672,0.8819 -7.5978,2.2328 -14.9567,3.002 -11.6043,1.2129 -13.3799,0.9222 -13.3799,-2.1903 z"
       id="path1937"
       transform="scale(0.75)" />
    <path
       style="fill:#00ff00;fill-rule:evenodd;stroke-width:2.15589"
       d="m 1094.7798,1509.8692 c 1.6805,-3.9687 7.556,-17.8874 13.0567,-30.9306 13.1169,-31.1026 16.73,-36.6789 27.2398,-42.0406 11.6337,-5.9351 14.5414,-12.4229 11.1875,-24.9626 -4.0225,-15.0397 -3.4289,-20.3124 2.2851,-20.2977 19.7299,0.051 53.3582,10.8801 53.3582,17.1829 0,2.1726 -6.6893,17.6475 -14.8652,34.3887 -8.1758,16.7412 -16.5665,36.7237 -18.6459,44.4056 -4.0866,15.0974 -4.129,15.1287 -26.4809,19.5991 l -6.9379,1.3876 6.2918,-16.9874 c 7.2833,-19.664 20.8537,-50.785 30.3348,-69.5671 7.6901,-15.234 8.2135,-19.6425 2.3322,-19.6425 -3.9322,0 -10.8348,9.4774 -10.8348,14.8761 0,1.1852 -2.9744,6.562 -6.6096,11.9484 -6.8927,10.213 -26.5273,50.7433 -33.3119,68.7632 -4.474,11.8833 -9.0025,15.4768 -22.1766,17.5984 l -9.2789,1.4943 z"
       id="path1939"
       transform="scale(0.75)" />
    <path
       style="fill:#00ff00;fill-rule:evenodd;stroke-width:2.15589"
       d="m 1182.5041,1492.8706 c 0,-7.926 30.9327,-77.5306 34.455,-77.5306 1.0968,0 7.5719,5.1917 14.3891,11.5372 l 12.3951,11.5373 -2.5185,8.4047 c -1.3851,4.6226 -5.4877,13.0864 -9.1167,18.8084 -5.7773,9.1092 -9.104,11.5907 -26.7337,19.942 -21.7647,10.31 -22.8703,10.663 -22.8703,7.301 z"
       id="path1941"
       transform="scale(0.75)" />
    <path
       style="fill:#00ff00;fill-rule:evenodd;stroke-width:2.15589"
       d="m 782.73173,1598.8234 c -6.875,-1.063 -8.76995,-2.4067 -10.01754,-7.1033 -0.84626,-3.1857 -0.91136,-6.4181 -0.14466,-7.183 0.76669,-0.765 2.39423,-4.9495 3.61675,-9.299 l 2.22277,-7.9081 102.33776,-1.0779 c 56.28577,-0.5929 103.44111,-1.7953 104.78961,-2.6719 1.34853,-0.8767 14.44555,-2.6209 29.10448,-3.8759 32.0779,-2.7464 92.2337,-11.4747 120.4337,-17.4743 58.7008,-12.4887 94.0183,-27.0013 125.9324,-51.748 l 6.2807,-4.8701 -1.3545,11.4365 c -3.8409,32.4299 -40.556,60.5343 -98.5203,75.4147 -48.0381,12.3321 -125.3697,23.2594 -185.34269,26.1896 -43.80913,2.1405 -185.81214,2.2621 -199.33848,0.1707 z"
       id="path1943"
       transform="scale(0.75)" />
    <path
       style="fill:#00ff00;fill-rule:evenodd;stroke-width:2.15589"
       d="m 727.81835,1590.1165 c 1.04718,-4.6607 3.74347,-13.1495 5.99175,-18.8641 l 4.08779,-10.39 11.46087,0.7692 c 19.55601,1.3126 19.53933,1.2924 14.4841,17.5558 -2.39568,7.7073 -4.7062,15.2259 -5.13448,16.7081 -0.53284,1.844 -5.83279,2.6949 -16.78635,2.6949 h -16.00765 z"
       id="path1945"
       transform="scale(0.75)" />
    <path
       style="fill:#00ff00;fill-rule:evenodd;stroke-width:2.15589"
       d="m 679.10448,1594.4926 c -7.80228,-1.7272 -7.66716,-3.7062 1.68041,-24.6116 l 6.69947,-14.9831 17.22404,1.3282 c 9.47323,0.7305 18.09942,2.2036 19.16931,3.2735 1.15643,1.1564 0.55964,4.6248 -1.47168,8.5529 -1.87932,3.6342 -4.46764,11.5069 -5.75182,17.4948 l -2.33488,10.8872 -14.3736,-0.2551 c -7.90547,-0.1403 -17.28404,-0.8993 -20.84125,-1.6868 z"
       id="path1947"
       transform="scale(0.75)" />
    <path
       style="fill:#00ff00;fill-rule:evenodd;stroke-width:2.15589"
       d="m 631.67496,1588.0253 c -5.50024,-1.2172 -6.42794,-2.3883 -6.20207,-7.8295 0.14607,-3.519 3.29806,-13.0786 7.00443,-21.2437 l 6.73884,-14.8456 9.16472,1.3027 c 5.0406,0.7164 13.25986,2.5462 18.26503,4.0661 l 9.10031,2.7635 -7.44363,16.1692 c -4.094,8.893 -7.46152,17.3818 -7.48339,18.864 -0.043,2.9155 -17.35259,3.3629 -29.14424,0.7533 z"
       id="path1949"
       transform="scale(0.75)" />
    <path
       style="fill:#00ff00;fill-rule:evenodd;stroke-width:2.15589"
       d="m 594.4859,1579.1202 c -2.66791,-1.0724 -4.85074,-3.5421 -4.85074,-5.4882 0,-3.1964 8.79198,-39.7311 10.00052,-41.5568 0.91354,-1.38 29.03983,8.6991 28.28266,10.1352 -0.40741,0.7727 -4.77771,9.8937 -9.71177,20.2689 -9.50165,19.9798 -11.65527,21.4906 -23.72067,16.6409 z"
       id="path1951"
       transform="scale(0.75)" />
    <path
       style="fill:#00ff00;fill-rule:evenodd;stroke-width:2.15589"
       d=""
       id="path1953"
       transform="scale(0.75)" />
    <path
       style="fill:#00ff00;fill-rule:evenodd;stroke-width:2.15589"
       d="m 530.34826,1552.6106 c -8.10048,-4.6469 -8.59769,-5.5058 -8.19728,-14.1601 0.40944,-8.8495 6.14836,-29.815 9.04304,-33.0362 0.76654,-0.853 6.57085,0.8477 12.89848,3.7793 9.31031,4.3135 11.19363,6.0486 9.87359,9.0965 -2.97044,6.8585 -9.5466,27.3846 -10.70387,33.4097 -1.37354,7.1512 -1.96318,7.1928 -12.91396,0.9108 z"
       id="path1955"
       transform="scale(0.75)" />
    <path
       style="fill:#00ff00;fill-rule:evenodd;stroke-width:2.15589"
       d="m 563.22554,1568.2612 c -7.62582,-4.0258 -8.08458,-4.855 -8.08458,-14.6119 0,-11.9983 5.6722,-30.345 9.88099,-31.9601 2.38963,-0.917 21.96752,4.238 27.14241,7.1468 0.79819,0.4486 -0.81725,4.9276 -3.58988,9.9534 -2.77262,5.0257 -6.3142,14.716 -7.87017,21.534 -3.17125,13.8959 -4.79544,14.6335 -17.47877,7.9378 z"
       id="path1957"
       transform="scale(0.75)" />
    <path
       style="fill:#00ff00;fill-rule:evenodd;stroke-width:2.15589"
       d="m 500.43244,1529.8803 -6.14543,-6.4145 5.88661,-18.4869 5.8866,-18.4869 8.43564,4.7411 c 4.6396,2.6076 7.97641,5.7588 7.41512,7.0027 -0.89874,1.9918 -9.57034,23.4679 -13.79859,34.1736 -1.37829,3.4897 -2.16018,3.2323 -7.67995,-2.5291 z"
       id="path1959"
       transform="scale(0.75)" />
    <path
       style="fill:#00ff00;fill-rule:evenodd;stroke-width:2.15589"
       d="m 481.99099,1506.1369 c -3.5587,-6.6097 -5.46677,-27.6339 -3.47265,-38.2635 l 1.54941,-8.259 8.6328,9.2548 c 9.65226,10.3477 9.70593,12.1822 0.92521,31.6283 -4.79679,10.6232 -4.90749,10.7049 -7.63477,5.6394 z"
       id="path1961"
       transform="scale(0.75)" />
    <path
       style="fill:#00ff00;fill-rule:evenodd;stroke-width:2.15589"
       d="m 470.14478,1011.4029 c -11.82141,-11.149 -16.85518,-24.81308 -18.02415,-48.92626 -0.78768,-16.24777 -0.25975,-22.03758 2.49517,-27.36502 3.68366,-7.12341 125.54272,-132.04363 128.80792,-132.04363 1.04481,0 1.89966,9.32177 1.89966,20.71504 v 20.71504 l -42.40916,43.42261 c -50.53718,51.74485 -76.16463,80.65428 -76.16463,85.91862 0,9.03231 12.33492,0.24845 35.65569,-25.39088 10.62569,-11.68209 33.38659,-36.24041 50.57979,-54.57403 l 31.26037,-33.33385 0.6376,15.66642 0.6376,15.66641 -14.26352,17.57907 c -7.84494,9.66849 -28.98221,33.4736 -46.97171,52.90025 -36.46094,39.37371 -42.44461,46.76241 -42.44461,52.41111 0,5.6807 -3.03336,4.8091 -11.69602,-3.3609 z"
       id="path1963"
       transform="scale(0.75)" />
    <path
       style="fill:#00ff00;fill-rule:evenodd;stroke-width:2.15589"
       d="m 498.26239,1027.309 c -16.5782,-5.2955 -18.35288,-7.3349 -9.5349,-10.9576 9.88994,-4.0631 39.13969,-33.74257 70.8977,-71.93929 l 26.77614,-32.20481 0.62502,18.87578 c 0.73988,22.34439 -1.62053,27.50306 -19.42067,42.44385 -22.50406,18.88909 -45.27869,41.92217 -49.35783,49.91797 -2.28601,4.4809 -4.86427,8.095 -5.72948,8.0312 -0.8652,-0.064 -7.28039,-1.939 -14.25598,-4.1671 z"
       id="path1965"
       transform="scale(0.75)" />
    <path
       style="fill:#00ff00;fill-rule:evenodd;stroke-width:2.15589"
       d="m 555.48709,1039.128 c -14.63136,-2.7759 -27.09874,-5.5434 -27.70528,-6.15 -2.10337,-2.1033 9.92906,-15.5168 34.75044,-38.73891 l 24.94702,-23.33968 v 36.81399 c 0,28.1079 -0.63731,36.7723 -2.69486,36.6378 -1.48217,-0.097 -14.66597,-2.4473 -29.29732,-5.2232 z"
       id="path1967"
       transform="scale(0.75)" />
    <path
       style="fill:#00ff00;fill-rule:evenodd;stroke-width:2.15589"
       d="m 451.65837,902.75404 v -13.35939 l 63.10249,-63.64425 c 34.70637,-35.00435 64.78099,-63.64426 66.8325,-63.64426 3.09527,0 3.73002,2.06948 3.73002,12.1609 v 12.16091 l -23.17578,21.67568 c -12.74669,11.92162 -42.82131,41.10085 -66.83251,64.84273 l -43.65672,43.16706 z"
       id="path1969"
       transform="scale(0.75)" />
    <path
       style="fill:#00ff00;fill-rule:evenodd;stroke-width:2.15589"
       d="m 451.61733,859.47505 0.041,-11.50339 27.48757,-29.39332 c 15.11816,-16.16633 30.4016,-32.43369 33.96321,-36.1497 5.29578,-5.52537 10.13728,-7.59946 26.57245,-11.38356 11.05324,-2.54494 20.59572,-4.62717 21.20551,-4.62717 0.60978,0 -4.02481,4.0578 -10.29909,9.01734 -6.27429,4.95954 -31.11868,28.48566 -55.20977,52.28027 l -43.80197,43.26292 z"
       id="path1971"
       transform="scale(0.75)" />
    <path
       style="fill:#00ff00;fill-rule:evenodd;stroke-width:2.15589"
       d=""
       id="path1973"
       transform="scale(0.75)" />
    <path
       style="fill:#00ff00;fill-rule:evenodd;stroke-width:2.15589"
       d=""
       id="path1975"
       transform="scale(0.75)" />
    <path
       style="fill:#00ff00;fill-rule:evenodd;stroke-width:2.15589"
       d="M 399.74787,918.94693 C 385.633,908.11232 377.92703,897.3874 377.92703,888.57736 c 0,-10.89243 5.88817,-17.62127 23.06799,-26.36153 l 15.09122,-7.67767 1.38863,18.99958 c 0.76375,10.44976 1.49136,26.51823 1.61692,35.7077 0.22276,16.30458 0.10214,16.70813 -4.99385,16.70813 -2.87216,0 -9.32969,-3.15299 -14.35007,-7.00664 z"
       id="path1977"
       transform="scale(0.75)" />
    <path
       style="fill:#00ff00;fill-rule:evenodd;stroke-width:2.15589"
       d="m 453.81426,820.24342 c 0,-1.22516 2.41123,-6.98589 5.35829,-12.80164 5.72346,-11.29469 14.79486,-19.45198 27.56579,-24.78801 17.19309,-7.18373 15.67564,-3.1734 -6.94937,18.36582 -21.89424,20.84352 -25.97471,23.86347 -25.97471,19.22383 z"
       id="path1979"
       transform="scale(0.75)" />
    <path
       style="fill:#00ff00;fill-rule:evenodd;stroke-width:2.15589"
       d="m 1145.8541,784.67529 c 0,-16.77089 0.6285,-20.78978 3.4188,-21.86053 5.0839,-1.95088 26.7636,3.44612 26.7636,6.6626 0,2.61337 -27.0358,35.74652 -29.1682,35.74652 -0.5578,0 -1.0142,-9.24686 -1.0142,-20.54859 z"
       id="path1981"
       transform="scale(0.75)" />
    <path
       style="fill:#00ff00;fill-rule:evenodd;stroke-width:2.15589"
       d="m 1145.8541,834.6486 c 0,-7.91944 2.0175,-11.40239 21.9206,-37.84302 9.2869,-12.33736 16.8853,-23.25154 16.8853,-24.25373 0,-2.25573 8.7775,-2.34363 12.2704,-0.12288 1.7428,1.10805 -5.067,11.32309 -21.1768,31.76632 -30.3917,38.56698 -29.8995,38.06566 -29.8995,30.45331 z"
       id="path1985"
       transform="scale(0.75)" />
    <path
       style="fill:#00ff00;fill-rule:evenodd;stroke-width:2.15589"
       d="m 1145.8541,887.93334 v -17.32372 l 16.4229,-25.68623 c 19.6673,-30.76039 44.9462,-64.80212 50.2152,-67.622 3.5206,-1.88421 26.5858,1.85396 29.5154,4.78357 0.6026,0.60262 -9.7241,14.05914 -22.9482,29.90337 -13.2241,15.84423 -34.2484,42.38978 -46.7206,58.99011 -12.4722,16.60033 -23.5336,31.10406 -24.5808,32.23052 -1.1133,1.1976 -1.9039,-5.14571 -1.9039,-15.27562 z"
       id="path1987"
       transform="scale(0.75)" />
    <path
       style="fill:#00ff00;fill-rule:evenodd;stroke-width:2.15589"
       d="m 1145.9359,951.50804 0.082,-33.10008 8.0028,-5.57004 c 4.4557,-3.10128 17.5261,-18.86764 29.4895,-35.57214 24.3684,-34.02557 61.7353,-82.55737 67.7693,-88.0181 3.8063,-3.44462 4.3647,-3.35785 10.0914,1.56806 l 6.0622,5.21445 -11.8381,12.68142 c -19.3096,20.68509 -32.1815,36.48767 -61.4963,75.49753 -33.2217,44.20885 -43.4065,60.38005 -40.1063,63.68022 4.1365,4.13653 23.9986,-17.54872 55.0462,-60.0989 32.3882,-44.38748 59.4504,-78.53052 63.2476,-79.79624 2.5077,-0.83591 7.2331,10.08151 7.2331,16.71125 0,2.06082 -9.9649,14.28546 -22.1441,27.16585 -22.3085,23.59284 -76.5944,87.50448 -99.2799,116.88381 l -12.241,15.85298 z"
       id="path1989"
       transform="scale(0.75)" />
    <path
       style="fill:#00ff00;fill-rule:evenodd;stroke-width:2.15589"
       d="m 1147.1873,1041.1815 c -0.7333,-1.911 -1.3332,-10.5969 -1.3332,-19.302 v -15.8276 l 19.803,-24.41898 c 10.8917,-13.43044 28.0405,-34.60556 38.1085,-47.05581 10.068,-12.45024 29.5335,-35.56731 43.2567,-51.37126 13.7231,-15.80395 27.0171,-31.1957 29.5422,-34.20389 l 4.591,-5.46943 1.5875,45.48702 1.5875,45.48702 -36.6384,38.58739 c -20.1511,21.22307 -40.7133,43.98454 -45.6938,50.58114 -9.5955,12.7092 -9.0687,12.4735 -39.9751,17.8857 -3.5572,0.6229 -8.0505,1.5741 -9.9851,2.1138 -1.9458,0.5428 -4.1133,-0.5712 -4.8508,-2.4931 z m 28.1605,-20.9079 c 6.5937,-6.2251 19.5297,-21.01987 28.7466,-32.87725 9.2169,-11.85738 28.4939,-35.14096 42.8378,-51.74129 25.5716,-29.59425 30.3221,-37.72803 22.035,-37.72803 -5.3128,0 -39.8059,36.18028 -72.2621,75.7966 -24.8551,30.33837 -33.874,43.34627 -36.7592,53.01767 -2.3251,7.7939 2.3956,5.8116 15.4019,-6.4677 z"
       id="path1991"
       transform="scale(0.75)" />
    <path
       style="fill:#00ff00;fill-rule:evenodd;stroke-width:2.15589"
       d="m 1218.3439,1024.5854 c 3.5768,-3.8536 17.4963,-19.1335 30.9322,-33.95522 36.8141,-40.61115 33.0793,-38.14479 31.8134,-21.00831 -1.3617,18.435 -9.4531,35.59883 -21.1488,44.86203 -8.9654,7.1007 -33.7735,16.9846 -42.8263,17.0627 l -5.2737,0.045 z"
       id="path1993"
       transform="scale(0.75)" />
    <path
       style="fill:#00ff00;fill-rule:evenodd;stroke-width:2.15589"
       d="m 1314.2665,911.40133 c 0.1393,-8.00373 0.8669,-24.02898 1.6169,-35.61166 l 1.3637,-21.05941 15.3574,7.3702 c 17.857,8.5698 22.3706,13.92257 22.3706,26.52976 0,7.24309 -1.4582,10.80983 -7.0066,17.13736 -9.6253,10.97702 -22.8047,20.18599 -28.889,20.18599 -4.8424,0 -5.055,-0.64304 -4.813,-14.55224 z"
       id="path1995"
       transform="scale(0.75)" />
  </g>
</svg>
